<svg id="Layer_1" data-name="Layer 1" xmlns="http://www.w3.org/2000/svg" xmlns:xlink="http://www.w3.org/1999/xlink" viewBox="0 0 3236.45 716.04"><defs><style>.cls-1{fill:url(#New_Gradient_Swatch);}.cls-2{fill:url(#New_Gradient_Swatch-2);}.cls-3{fill:url(#New_Gradient_Swatch-3);}.cls-4{fill:#282828;}.cls-5{fill:#0069aa;}</style><linearGradient id="New_Gradient_Swatch" x1="2138.74" y1="268.03" x2="1869.3" y2="734.72" gradientUnits="userSpaceOnUse"><stop offset="0" stop-color="#0069aa"/><stop offset="1" stop-color="#00497b"/></linearGradient><linearGradient id="New_Gradient_Swatch-2" x1="1942.49" y1="0" x2="1942.49" y2="358.08" xlink:href="#New_Gradient_Swatch"/><linearGradient id="New_Gradient_Swatch-3" x1="1716.73" y1="716.04" x2="1716.73" y2="95.34" xlink:href="#New_Gradient_Swatch"/></defs><title>logo</title><path class="cls-1" d="M2210.48,309.45l-456.62,265,2,94.76,538.89-311.13Z"/><polygon class="cls-2" points="2126.67 358.08 2210.48 309.45 1674.5 0 1674.72 97.1 2126.67 358.08"/><polygon class="cls-3" points="1758.74 145.66 1758.74 667.53 1674.72 716.04 1674.72 95.34 1758.74 145.66"/><path class="cls-4" d="M255.43,438,255,365.47l-34.57,58.22H196.75L162.18,368v70h-48.9V278.81h44.13l51.85,84.84,50.5-84.84h44.12L304.33,438Z"/><path class="cls-4" d="M332,296.21a24.89,24.89,0,0,1,0-37.52q8.52-7.4,22.4-7.4,14.1,0,22.52,7a22.66,22.66,0,0,1,8.41,18.2A25.06,25.06,0,0,1,376.89,296q-8.42,7.62-22.52,7.62Q340.5,303.61,332,296.21Zm-3.3,17.4h51.4V438h-51.4Z"/><path class="cls-4" d="M431.81,432.11a63.27,63.27,0,0,1-26.15-23,63.74,63.74,0,0,1,0-66.76,63.57,63.57,0,0,1,26.15-22.85q16.72-8.19,37.87-8.19,22.74,0,38.89,9.78a50.71,50.71,0,0,1,22.29,27.06l-39.8,19.56q-7.28-16.37-21.61-16.37a19.92,19.92,0,0,0-15.12,6.37q-6,6.36-6,18,0,11.83,6,18.2a19.92,19.92,0,0,0,15.12,6.37q14.34,0,21.61-16.38l39.8,19.56a50.7,50.7,0,0,1-22.29,27.07q-16.14,9.78-38.89,9.78Q448.53,440.3,431.81,432.11Z"/><path class="cls-4" d="M602.28,399.81l-8.19,8.87V438h-51.4V269.26h51.4v80.52l35.71-36.17h60.73l-51.41,53.91,55.5,70.5H632.53Z"/><path class="cls-4" d="M781.16,435.64A61.92,61.92,0,0,1,756.25,418l28.89-34.12a52.33,52.33,0,0,0,12.51,11.83,23.56,23.56,0,0,0,12.74,3.87q8.4,0,12.85-5t4.43-14.78V319.3H773.54V278.81H880.66v97.8q0,32.53-16.71,48.79t-49,16.26A90.66,90.66,0,0,1,781.16,435.64Z"/><path class="cls-4" d="M1009.4,326q17.28,14.67,17.28,45.15V438H978.92V421.65Q970,440.29,943.66,440.3q-14.77,0-25.13-5.12a36.05,36.05,0,0,1-21-33.55q0-18.42,14.11-28t42.75-9.55h20.7q-2.5-14.57-23.43-14.56a58.73,58.73,0,0,0-17,2.61,48.16,48.16,0,0,0-14.79,7.17l-16.37-33.89a90.23,90.23,0,0,1,25.81-10.35,124.83,124.83,0,0,1,30.14-3.75Q992.11,311.34,1009.4,326Zm-40.49,80.4a17.14,17.14,0,0,0,6.37-8.87V388.9H962.54q-15.69,0-15.69,10.46a9,9,0,0,0,3.3,7.16c2.19,1.9,5.19,2.85,9,2.85A16.92,16.92,0,0,0,968.91,406.41Z"/><path class="cls-4" d="M1066.25,436.89q-15.46-3.42-25-8.87l14.1-33.89a73.81,73.81,0,0,0,20.47,8.19,94.57,94.57,0,0,0,23,2.95q8.87,0,12.39-1.48t3.53-4.43q0-3-4.44-4.09a118.54,118.54,0,0,0-14.44-2.28,189.38,189.38,0,0,1-25.93-4.66,40.64,40.64,0,0,1-18.76-11q-8.09-8.19-8.07-23.43a34.76,34.76,0,0,1,7.27-21.61q7.28-9.54,21.72-15.24t34.69-5.68a145.54,145.54,0,0,1,27.63,2.61,84.66,84.66,0,0,1,23.09,7.62l-14.1,33.89a72.83,72.83,0,0,0-35.94-9.09q-16.83,0-16.83,5.91c0,2,1.51,3.37,4.55,4.21a104.83,104.83,0,0,0,14.33,2.38,175.43,175.43,0,0,1,25.81,4.78,41.57,41.57,0,0,1,18.65,11.15Q1162,383,1162,398.22a34.08,34.08,0,0,1-7.28,21.15q-7.29,9.56-21.83,15.24t-35.26,5.69A145.6,145.6,0,0,1,1066.25,436.89Z"/><path class="cls-4" d="M1237.06,399.81l-8.19,8.87V438h-51.4V269.26h51.4v80.52l35.71-36.17h60.73l-51.4,53.91L1329.4,438h-62.09Z"/><path class="cls-4" d="M1465.64,387.76h-86.43a20.91,20.91,0,0,0,9.1,10.8q6.36,3.75,15.92,3.76a40.28,40.28,0,0,0,13.76-2.05,48.27,48.27,0,0,0,12.17-7L1457,420.28q-18.2,20-54.36,20-22.52,0-39.58-8.3t-26.38-23.09a64.35,64.35,0,0,1-.11-66.53,62.93,62.93,0,0,1,25.24-22.85q16-8.19,36-8.19a78.4,78.4,0,0,1,34.46,7.5,59.2,59.2,0,0,1,24.79,22.07q9.21,14.55,9.21,34.79C1466.32,376.47,1466.1,380.48,1465.64,387.76Zm-80.51-37.07Q1379.9,355,1378.3,363h40a20.9,20.9,0,0,0-6.82-12.17q-5.23-4.44-13.19-4.43T1385.13,350.69Z"/><path class="cls-4" d="M1571.63,311.34v45.49a77.49,77.49,0,0,0-11.37-.91q-26.38,0-26.39,26.84V438h-51.4V313.61h48.9V327Q1545,311.34,1571.63,311.34Z"/><path class="cls-5" d="M2545.12,438l-.23-95.52L2498,421.19h-16.6l-46.62-76.64V438h-34.58V278.81h30.48l59.59,98.94L2549,278.81h30.25l.46,159.21Z"/><path class="cls-5" d="M2734.12,386.85h-92.57a28.83,28.83,0,0,0,11.82,18q9.33,6.6,23.2,6.59a46.91,46.91,0,0,0,16.95-2.84,41.13,41.13,0,0,0,13.76-9l18.88,20.47q-17.29,19.79-50.5,19.78-20.68,0-36.61-8.07a59.15,59.15,0,0,1-24.57-22.4q-8.64-14.34-8.64-32.53a62.52,62.52,0,0,1,8.53-32.41,59.75,59.75,0,0,1,23.42-22.52,72.57,72.57,0,0,1,65.85-.34,56.54,56.54,0,0,1,22.86,22.18q8.3,14.44,8.3,33.55C2734.8,377.75,2734.57,380.94,2734.12,386.85Zm-83-39.35q-8.19,6.83-10,18.65h60.28q-1.83-11.59-10-18.53t-20-6.94Q2659.28,340.68,2651.1,347.5Z"/><path class="cls-5" d="M2883.09,269.26V438H2849.2v-14.1Q2836,439.85,2811,439.84a63.47,63.47,0,0,1-31.27-7.73,55.34,55.34,0,0,1-21.95-22.06q-8-14.32-8-33.21t8-33.2a55.37,55.37,0,0,1,21.95-22.07,63.58,63.58,0,0,1,31.27-7.73q23.43,0,36.62,14.78V269.26Zm-43.67,132.26q8.86-9.21,8.87-24.68t-8.87-24.68q-8.86-9.21-22.29-9.21-13.65,0-22.51,9.21t-8.88,24.68q0,15.48,8.88,24.68t22.51,9.21Q2830.56,410.73,2839.42,401.52Z"/><path class="cls-5" d="M2917.66,292.92a19.27,19.27,0,0,1,0-28.21q6.14-5.68,15.92-5.68t15.92,5.46a17.49,17.49,0,0,1,6.14,13.64,19.31,19.31,0,0,1-6.14,14.67q-6.14,5.81-15.92,5.8T2917.66,292.92Zm-1.82,22.74h35.48V438h-35.48Z"/><path class="cls-5" d="M3077.32,327.37q15.24,13.54,15.24,40.83V438h-33.21V422.79q-10,17.06-37.3,17-14.1,0-24.45-4.77a36.42,36.42,0,0,1-15.8-13.19,34.33,34.33,0,0,1-5.46-19.11q0-17.06,12.85-26.84t39.69-9.78h28.2q0-11.59-7-17.85T3028.88,342a62,62,0,0,0-19.22,3.07,50.85,50.85,0,0,0-16,8.31l-12.73-24.8a77.14,77.14,0,0,1,24-10.91,107.39,107.39,0,0,1,28.77-3.87Q3062.09,313.84,3077.32,327.37Zm-30.25,84.38a23,23,0,0,0,10-12.39V386.85h-24.34q-21.82,0-21.83,14.33a12.75,12.75,0,0,0,5.34,10.8q5.34,4,14.67,4A30.85,30.85,0,0,0,3047.07,411.75Z"/></svg>